<?xml version="1.0" encoding="UTF-8"?>
<svg xmlns="http://www.w3.org/2000/svg" xmlns:xlink="http://www.w3.org/1999/xlink" width="3005" height="3005" viewBox="0 0 3005 3005">

<path fill-rule="nonzero" fill="rgb(74.021912%, 95.701599%, 100%)" fill-opacity="1" d="M 2.21875 0 C 1.628906 0 1.066406 0.230469 0.648438 0.648438 C 0.234375 1.070312 0 1.628906 0 2.21875 L 0 3002.21875 C 0 3003.445312 0.996094 3004.4375 2.21875 3004.4375 L 3002.21875 3004.441406 C 3002.808594 3004.441406 3003.378906 3004.207031 3003.789062 3003.789062 C 3004.210938 3003.375 3004.441406 3002.808594 3004.441406 3002.222656 L 3004.441406 2.21875 C 3004.441406 1 3003.449219 0 3002.21875 0 Z M 2.21875 0 "/>
<path fill-rule="nonzero" fill="rgb(95.3125%, 95.3125%, 95.3125%)" fill-opacity="1" d="M 1903.46875 1738.859375 L 1902.691406 1755.121094 C 1902.191406 1798.699219 1895.378906 1841.398438 1882.25 1883.210938 C 1876.011719 1909.621094 1852.910156 1944.589844 1812.980469 1988.121094 C 1796.039062 2007.578125 1751.890625 2045.0625 1680.519531 2100.566406 L 1505.308594 2170.996094 L 1418.941406 2140.363281 L 1151.828125 2019.46875 L 1103.601562 1820.488281 L 1141.179688 1687.449219 L 1318.699219 1698.988281 L 1727.988281 1694.121094 L 1903.46875 1738.859375 "/>
<path fill-rule="nonzero" fill="rgb(95.3125%, 95.3125%, 95.3125%)" fill-opacity="1" d="M 2250.671875 1893.589844 L 2284.878906 1792.109375 L 2288 1612.550781 L 2213.570312 1560.480469 L 2153.390625 1589.839844 L 2132.800781 1691.5 L 2104.199219 1790.050781 L 2103.410156 1818.609375 L 2250.671875 1893.589844 "/>
<path fill-rule="nonzero" fill="rgb(95.3125%, 95.3125%, 95.3125%)" fill-opacity="1" d="M 2064.988281 2281.601562 L 2183.730469 2348.046875 L 2206.929688 2431.582031 L 2143.820312 2538.929688 L 2069.53125 2564.113281 C 1985.308594 2550.679688 1943.589844 2544.519531 1944.378906 2545.628906 L 1909.210938 2536.960938 L 1838.71875 2573.316406 L 1750.261719 2583.667969 L 1629.589844 2560.464844 L 1501.25 2498.410156 L 1453.398438 2533.789062 L 1361.191406 2565.148438 L 1297.058594 2579.613281 L 1219.699219 2580.511719 L 1143.160156 2567.734375 L 1090.851562 2541.859375 L 974.066406 2566.542969 L 867.050781 2533.25 L 804.34375 2482.984375 L 810.929688 2387.640625 L 858.976562 2333.527344 L 936.914062 2277.5625 L 895.96875 2118.703125 L 2064.988281 2281.601562 "/>
<path fill-rule="nonzero" fill="rgb(100%, 61.131287%, 21.166992%)" fill-opacity="1" d="M 2146.789062 1388.941406 L 2265.21875 1375.570312 C 2338.089844 1319.148438 2369.628906 1270.871094 2359.820312 1230.710938 C 2352.269531 1198.710938 2323.570312 1149.089844 2273.71875 1081.851562 L 2167.351562 815.320312 L 2092.570312 684.328125 L 2061.449219 651.871094 C 2037.230469 627.878906 2001.929688 609.96875 1955.539062 598.148438 C 1927.769531 591.210938 1871.980469 586.730469 1788.179688 584.730469 C 1677.761719 549.050781 1599.058594 527.390625 1552.078125 519.738281 C 1497.769531 510.789062 1446.058594 509.019531 1396.949219 514.421875 C 1351.140625 519.949219 1277.53125 546.339844 1176.089844 593.578125 C 1090.960938 603.960938 1034.199219 614.238281 1005.800781 624.410156 C 974.128906 632.871094 942.894531 652.511719 912.097656 683.320312 C 894.929688 703.171875 880.640625 725.558594 869.21875 750.5 L 753.609375 1033.878906 C 688.539062 1131.179688 647.484375 1197.289062 630.449219 1232.210938 C 626.382812 1245.871094 625.035156 1254.25 626.417969 1257.371094 L 679.414062 1331.25 C 686.582031 1344.371094 712.925781 1359.449219 758.441406 1376.5 C 786.710938 1385.179688 820.738281 1391.140625 860.519531 1394.390625 L 888.582031 1269.308594 C 933.089844 1255.859375 974.484375 1249.488281 1012.769531 1250.199219 C 1077.910156 1257.941406 1134.519531 1271.039062 1182.589844 1289.519531 C 1208.769531 1288.988281 1230.78125 1286.691406 1248.628906 1282.621094 C 1271.429688 1276.378906 1291.179688 1267.828125 1307.890625 1256.96875 L 1446.5 1152.960938 C 1468.230469 1141.410156 1486.5 1135.929688 1501.328125 1136.539062 C 1516.039062 1135.621094 1538.859375 1142.929688 1569.769531 1158.449219 L 1764.671875 1280.890625 C 1868.839844 1255.429688 1933.808594 1242.941406 1959.539062 1243.410156 C 2006.269531 1242.21875 2048.011719 1248.410156 2084.75 1261.980469 L 2115.128906 1274.300781 L 2146.789062 1388.941406 "/>
<path fill-rule="nonzero" fill="rgb(100%, 61.131287%, 21.166992%)" fill-opacity="1" d="M 1871.898438 1739.710938 L 1872.019531 1747.808594 C 1874.5 1794.289062 1870.179688 1833.238281 1859.070312 1864.660156 L 1827.808594 1953.621094 C 1826.890625 1957.558594 1818.96875 1968.320312 1804.019531 1985.910156 C 1773.179688 2022.859375 1731.339844 2059.507812 1678.5 2095.855469 C 1605.871094 2132.09375 1550.160156 2154.890625 1511.390625 2164.242188 L 1292.851562 2077.289062 L 1176.828125 1947.011719 L 1147.390625 1889.460938 C 1130.539062 1816.191406 1126.519531 1760.019531 1135.320312 1720.960938 L 1059.128906 1692.359375 L 1003.589844 1938.769531 C 923.371094 2006.949219 885.5625 2074.628906 890.175781 2141.8125 C 892.878906 2204.785156 915.820312 2256.25 959.003906 2296.207031 C 976.257812 2309.296875 1003.441406 2316.660156 1040.570312 2318.292969 C 1060.21875 2319.804688 1090.039062 2316.636719 1130.019531 2308.789062 C 1155.628906 2338.773438 1192.511719 2362.050781 1240.660156 2378.632812 C 1255.171875 2380.503906 1268.289062 2380.726562 1280 2379.296875 C 1313.75 2373.507812 1339.019531 2367.597656 1355.828125 2361.5625 L 1408.269531 2355.035156 C 1440.148438 2352.296875 1469.710938 2351.214844 1496.941406 2351.792969 C 1542.46875 2355.097656 1612.960938 2364.660156 1708.429688 2380.484375 C 1729.808594 2382.886719 1749.871094 2383.472656 1768.601562 2382.246094 C 1782.808594 2380.953125 1796.191406 2377.550781 1808.738281 2372.039062 C 1829.109375 2360.839844 1850.421875 2346.636719 1872.679688 2329.425781 L 1894.070312 2320.429688 C 1901.589844 2318.957031 1908.800781 2318.40625 1915.699219 2318.78125 C 1946.910156 2322.996094 1968.570312 2325.246094 1980.691406 2325.53125 C 2001.578125 2323.605469 2014.570312 2321.3125 2019.660156 2318.644531 C 2065.019531 2291.628906 2094.089844 2258.074219 2106.859375 2217.984375 C 2121.101562 2152.949219 2120.839844 2094.066406 2106.101562 2041.339844 C 2146.289062 2011.441406 2179.191406 1983.28125 2204.800781 1956.859375 C 2244.589844 1911.820312 2265.199219 1881.511719 2266.609375 1865.929688 C 2201.410156 1853.699219 2151.230469 1828.949219 2116.058594 1791.691406 L 2010.851562 1923.230469 L 1974.019531 1719.601562 L 1871.898438 1739.710938 "/>
<path fill-rule="nonzero" fill="rgb(95.3125%, 95.3125%, 95.3125%)" fill-opacity="1" d="M 2112.980469 1275.601562 L 2117.570312 1282.53125 C 2146.289062 1322.328125 2159.199219 1369.230469 2156.289062 1423.230469 C 2152.519531 1493.398438 2134.019531 1549.21875 2100.800781 1590.710938 C 2082.039062 1618.039062 2038.328125 1655.640625 1969.648438 1703.511719 L 1721.621094 1771.289062 L 1403.710938 1791.609375 C 1216.960938 1741.320312 1098.5 1702.441406 1048.320312 1674.980469 C 997.492188 1653.878906 954.902344 1618.691406 920.554688 1569.398438 C 902.800781 1541.761719 888.007812 1501.070312 876.171875 1447.328125 L 889.792969 1273.570312 L 923.667969 1263.179688 C 940.773438 1257.828125 965 1255.53125 996.335938 1256.289062 L 1031.648438 1259.730469 C 1109.808594 1272.738281 1155.738281 1279.640625 1169.441406 1280.421875 C 1197.75 1282.789062 1220.589844 1281.871094 1237.941406 1277.671875 C 1262.070312 1272.160156 1287.308594 1261.691406 1313.640625 1246.289062 C 1343.039062 1230.339844 1397.441406 1196.730469 1476.859375 1145.460938 L 1757.289062 1270.441406 L 1975.449219 1254.070312 L 2112.980469 1275.601562 "/>
<path fill-rule="nonzero" fill="rgb(88.28125%, 32.542419%, 32.542419%)" fill-opacity="1" d="M 1407.359375 1593.890625 L 1409.71875 1591.019531 C 1420.820312 1576.398438 1433.921875 1565.019531 1449.03125 1556.871094 C 1467.710938 1547.421875 1485.089844 1543.160156 1501.148438 1544.070312 C 1515.789062 1545.171875 1528.949219 1550.078125 1540.640625 1558.789062 C 1553.578125 1568.671875 1566.929688 1584.058594 1580.691406 1604.941406 L 1545.378906 1630.980469 L 1480.828125 1637.398438 L 1407.359375 1593.890625 "/>
<path fill-rule="nonzero" fill="rgb(100%, 95.701599%, 91.014099%)" fill-opacity="1" d="M 2027.878906 866.820312 L 2024.070312 854.871094 C 2004.550781 794.140625 1985.539062 752.300781 1967.03125 729.351562 C 1954.089844 706.671875 1910.960938 665.859375 1837.628906 606.910156 L 1763.261719 575.359375 L 1569.25 517.660156 C 1544.121094 514.960938 1519.140625 513.769531 1494.320312 514.070312 L 1457.199219 515.671875 C 1432.539062 517.488281 1408.039062 520.808594 1383.691406 525.640625 C 1334.988281 535.300781 1286.929688 550.96875 1239.5 572.671875 C 1195.640625 593.179688 1161.710938 614.308594 1137.710938 636.058594 C 1093.25 680.390625 1059.800781 721.648438 1037.351562 759.820312 C 1149.269531 662.949219 1228.96875 607.308594 1276.460938 592.878906 C 1358.191406 561.359375 1453.578125 550.609375 1562.648438 560.628906 C 1582.851562 563.03125 1602.761719 566.460938 1622.378906 570.929688 C 1642.011719 575.390625 1661.339844 580.898438 1680.390625 587.441406 L 1708.75 598.03125 C 1741.078125 609.808594 1782.640625 632.511719 1833.441406 666.140625 C 1874.921875 694.101562 1915.949219 728.570312 1956.519531 769.550781 L 1971.640625 785.308594 L 2027.878906 866.820312 "/>
<path fill-rule="nonzero" fill="rgb(100%, 95.701599%, 91.014099%)" fill-opacity="1" d="M 1180.269531 595.828125 L 991.648438 624.589844 L 881.5625 714.308594 C 853.40625 781.261719 796.0625 910.410156 709.53125 1101.761719 C 745.792969 1071.609375 771.601562 1044.230469 786.960938 1019.601562 C 791.195312 1013.800781 798.117188 1000.25 807.730469 978.960938 C 843.648438 882.058594 864.984375 828.941406 871.738281 819.589844 C 896.71875 771.648438 917.851562 738.75 935.140625 720.910156 C 959.71875 694.03125 994.085938 669.570312 1038.238281 647.519531 L 1180.269531 595.828125 "/>
<path fill-rule="nonzero" fill="rgb(100%, 95.701599%, 91.014099%)" fill-opacity="1" d="M 1920.839844 605.558594 L 1928.539062 604.839844 C 1964.878906 599.109375 1998.078125 607.519531 2028.128906 630.101562 L 2072.238281 666.621094 L 2151.511719 779.890625 L 2251.519531 1049.230469 L 2299.589844 1125.199219 C 2331.109375 1157.980469 2350.761719 1182.410156 2358.539062 1198.488281 C 2368.609375 1215.621094 2368.488281 1239.160156 2358.191406 1269.109375 C 2300.699219 1194.871094 2260.558594 1134.601562 2237.769531 1088.308594 C 2226.769531 1067.730469 2213.121094 1038.351562 2196.820312 1000.179688 C 2146.628906 873.050781 2117.828125 801.28125 2110.429688 784.871094 C 2103.621094 767.800781 2091.21875 744.210938 2073.238281 714.121094 C 2060.550781 693.761719 2043.46875 675.300781 2021.988281 658.738281 C 2011.25 650.460938 1999.410156 642.660156 1986.46875 635.328125 C 1981.378906 631.070312 1959.5 621.148438 1920.839844 605.558594 "/>
<path fill-rule="nonzero" fill="rgb(100%, 95.701599%, 91.014099%)" fill-opacity="1" d="M 1082.910156 1713.101562 L 1077.980469 1729.351562 C 1059.058594 1793.609375 1048.660156 1834.390625 1046.78125 1851.699219 C 1042.101562 1878.359375 1040.320312 1900.238281 1041.460938 1917.351562 C 1042.621094 1943.910156 1044.21875 1961.058594 1046.269531 1968.789062 C 1048.480469 1981.730469 1051.441406 1995.679688 1055.160156 2010.644531 C 1062.609375 2040.558594 1073.089844 2074.503906 1086.609375 2112.480469 C 1111.789062 2175.75 1130 2216.554688 1141.21875 2234.886719 C 1154.820312 2260.960938 1171.058594 2285.832031 1189.929688 2309.503906 C 1209.109375 2333.949219 1247.859375 2353.792969 1306.160156 2369.027344 L 1170.160156 2344.378906 L 1119.289062 2284.703125 L 1061.960938 2147.855469 L 1035.769531 2065.488281 L 1001.769531 1942.230469 L 1002.871094 1864.960938 L 1032.320312 1746.941406 L 1082.910156 1713.101562 "/>
<path fill-rule="nonzero" fill="rgb(100%, 95.701599%, 91.014099%)" fill-opacity="1" d="M 950.878906 1993.839844 L 949.566406 1999.53125 C 945.550781 2017.160156 941.578125 2033.003906 937.640625 2047.054688 C 935.398438 2054.964844 931.097656 2068.214844 924.738281 2086.804688 C 922.359375 2094.8125 920.910156 2100.054688 920.390625 2102.53125 C 917.003906 2117 915.910156 2132.433594 917.121094 2148.84375 C 917.550781 2154.5 918.171875 2160.121094 918.980469 2165.714844 C 919.792969 2171.308594 920.792969 2176.867188 921.988281 2182.398438 L 923.917969 2190.667969 C 926.683594 2201.664062 930.210938 2212.53125 934.5 2223.273438 C 940.304688 2238.882812 953.117188 2261.851562 972.9375 2292.175781 L 922.652344 2270.792969 L 897.863281 2205.5625 L 895.316406 2137.304688 L 898.234375 2075.390625 L 917.550781 2033.957031 L 950.878906 1993.839844 "/>
<path fill-rule="nonzero" fill="rgb(100%, 95.701599%, 91.014099%)" fill-opacity="1" d="M 1927.921875 1731.398438 L 1937.140625 1755.640625 C 1953.289062 1797.191406 1963.648438 1832.960938 1968.21875 1862.96875 C 1970.019531 1875.148438 1971.019531 1888.121094 1971.25 1901.898438 C 1971.730469 1912.710938 1970.929688 1930.238281 1968.851562 1954.480469 C 1966.988281 1976.78125 1961.441406 2007.46875 1952.210938 2046.535156 C 1948.351562 2061.945312 1944.03125 2077.703125 1939.25 2093.800781 C 1916.710938 2166.472656 1904.039062 2208.140625 1901.230469 2218.808594 C 1892.769531 2251.34375 1886.410156 2278.53125 1882.148438 2300.378906 L 1929.179688 2213.605469 L 1956.398438 2135.265625 L 1993.269531 2000.691406 L 2007.679688 1920.179688 C 1993.570312 1838.539062 1981.449219 1769.589844 1971.308594 1713.320312 L 1927.921875 1731.398438 "/>
<path fill-rule="nonzero" fill="rgb(100%, 95.701599%, 91.014099%)" fill-opacity="1" d="M 2013.019531 2313.496094 L 2017.929688 2307.394531 C 2025.789062 2298.023438 2035.148438 2285.5625 2046.011719 2270.011719 C 2050.640625 2263.425781 2055.839844 2254.546875 2061.601562 2243.371094 C 2071.851562 2221.554688 2078.089844 2200.328125 2080.320312 2179.695312 C 2083.320312 2156.351562 2083.160156 2130.582031 2079.828125 2102.378906 C 2077.941406 2085.144531 2071.488281 2046.328125 2060.46875 1985.941406 L 2099.839844 2039.464844 L 2115.78125 2124.859375 L 2105.539062 2207.867188 L 2077.019531 2263.503906 L 2013.019531 2313.496094 "/>
<path fill-rule="nonzero" fill="rgb(75.78125%, 75.78125%, 75.78125%)" fill-opacity="1" d="M 2140.25 1470.898438 L 2136.21875 1479.109375 C 2112.21875 1529.230469 2091.910156 1560.640625 2075.289062 1573.351562 C 2061.300781 1587.449219 2016.421875 1612.25 1940.671875 1647.730469 C 1789.570312 1702.191406 1645.199219 1729.300781 1507.570312 1729.070312 C 1442.269531 1728.320312 1375.941406 1720.589844 1308.609375 1705.898438 C 1241.539062 1691.148438 1179.539062 1672.148438 1122.589844 1648.910156 C 1006.769531 1601.621094 921.128906 1542.328125 865.675781 1471.039062 L 927.222656 1587.601562 L 978.164062 1640.980469 L 1137 1723.460938 L 1238.878906 1757.691406 L 1427.628906 1795.140625 L 1541.351562 1793.160156 L 1741.828125 1781.808594 L 1979.179688 1707.300781 L 2062.21875 1649.738281 L 2123.121094 1566.5 L 2140.25 1470.898438 "/>
<path fill-rule="nonzero" fill="rgb(75.78125%, 75.78125%, 75.78125%)" fill-opacity="1" d="M 1805.960938 1952.289062 L 1800.058594 1955.25 C 1778.390625 1965.980469 1760.859375 1975.75 1747.46875 1984.570312 C 1740.570312 1988.769531 1724.710938 2000.679688 1699.890625 2020.289062 L 1676.941406 2036.230469 C 1655.078125 2049.628906 1638.179688 2058.859375 1626.25 2063.929688 C 1602.808594 2075.089844 1577.011719 2084.101562 1548.851562 2090.960938 C 1531.828125 2095.359375 1511.621094 2097.609375 1488.230469 2097.707031 C 1453.039062 2096.15625 1418 2085.96875 1383.089844 2067.148438 L 1246.929688 1989.210938 C 1232.5 1980.308594 1211.539062 1964.511719 1184.039062 1941.839844 C 1195.671875 1974.449219 1206.390625 1997.148438 1216.199219 2009.925781 C 1225.988281 2025.246094 1245.039062 2043.335938 1273.351562 2064.191406 L 1313.820312 2092.171875 L 1494.660156 2172.640625 L 1611.75 2131.824219 L 1699.289062 2078.9375 L 1805.960938 1952.289062 "/>
<path fill-rule="nonzero" fill="rgb(75.78125%, 75.78125%, 75.78125%)" fill-opacity="1" d="M 2201.308594 2401.046875 L 2190.628906 2415.5 C 2167.359375 2447.292969 2149.230469 2469.195312 2136.25 2481.214844 C 2121.308594 2494.292969 2106.898438 2501.304688 2093.03125 2502.246094 C 2084.441406 2503.472656 2075.511719 2504.15625 2066.230469 2504.292969 L 1998.75 2504.207031 C 1988.460938 2504.355469 1980.058594 2504.78125 1973.570312 2505.492188 C 1954.25 2507.675781 1937.378906 2512.636719 1922.96875 2520.367188 L 1798.410156 2524.4375 C 1759.539062 2525.269531 1725.578125 2525.175781 1696.539062 2524.148438 C 1656 2522.773438 1622.789062 2519.515625 1596.898438 2514.375 C 1574.289062 2510.246094 1546.019531 2500.835938 1512.070312 2486.148438 L 1486.269531 2482.40625 C 1400.691406 2508.433594 1336.609375 2526.535156 1294.039062 2536.710938 C 1260.851562 2544.976562 1234.230469 2548.457031 1214.171875 2547.148438 C 1199.539062 2546.0625 1185.789062 2541.898438 1172.898438 2534.664062 C 1160.289062 2528.421875 1143.75 2515.445312 1123.308594 2495.742188 C 1093.628906 2467.585938 1077.230469 2437.71875 1074.101562 2406.132812 L 1045.519531 2469.054688 L 1074.058594 2512.464844 C 1021.558594 2518.210938 984.277344 2519.496094 962.207031 2516.308594 C 926.792969 2511.945312 898.398438 2503.269531 877.015625 2490.277344 C 824.9375 2460.839844 830.972656 2401.046875 895.117188 2310.902344 L 847.878906 2323.710938 L 803.675781 2412.410156 L 821.148438 2497.101562 L 881.773438 2536.910156 L 998.273438 2564.179688 C 1033.699219 2548.480469 1064.800781 2542.207031 1091.570312 2545.351562 C 1117.308594 2546.417969 1166.148438 2558.785156 1238.101562 2582.449219 C 1298.53125 2576.597656 1343.488281 2569.035156 1373 2559.769531 C 1402.628906 2551.632812 1446.371094 2533.089844 1504.210938 2504.136719 L 1678.761719 2580.828125 L 1840.609375 2571.652344 L 1905.589844 2544.769531 L 2037.21875 2560.746094 L 2126.210938 2558.355469 L 2199.621094 2468.832031 L 2201.308594 2401.046875 "/>
<path fill-rule="nonzero" fill="rgb(75.78125%, 75.78125%, 75.78125%)" fill-opacity="1" d="M 2210.910156 1852.898438 L 2270 1859.601562 C 2282.53125 1805.269531 2290.859375 1763.738281 2294.980469 1735.03125 C 2298.570312 1710.230469 2299.71875 1689.328125 2298.429688 1672.320312 C 2298.410156 1669 2297.519531 1661.359375 2295.769531 1649.398438 C 2294.808594 1643.351562 2292.53125 1632.660156 2288.941406 1617.328125 C 2288.25 1614.480469 2287.339844 1607.488281 2286.210938 1596.339844 C 2285.449219 1592.761719 2284.839844 1590.679688 2284.390625 1590.089844 C 2282.25 1583.75 2269.871094 1573.910156 2247.25 1560.578125 C 2245.628906 1600.148438 2242.039062 1650.929688 2236.460938 1712.929688 L 2210.910156 1852.898438 "/>
<path fill-rule="nonzero" fill="rgb(75.78125%, 75.78125%, 75.78125%)" fill-opacity="1" d="M 1719.5 1452.109375 L 1713.851562 1453.859375 C 1693.121094 1460.46875 1676.261719 1464.378906 1663.28125 1465.578125 C 1652.011719 1466.78125 1640.898438 1466.109375 1629.941406 1463.550781 C 1593.691406 1453.808594 1563.671875 1432.851562 1539.898438 1400.691406 C 1528.769531 1408.761719 1520.480469 1414.199219 1515.039062 1417.019531 C 1509.699219 1419.601562 1506.609375 1420.898438 1505.769531 1420.910156 C 1503.851562 1421.460938 1502.050781 1421.738281 1500.359375 1421.75 C 1498.660156 1421.75 1497.089844 1421.46875 1495.671875 1420.929688 C 1494.839844 1420.921875 1492.898438 1419.628906 1489.851562 1417.058594 C 1486.910156 1414.269531 1483.441406 1408.859375 1479.46875 1400.839844 C 1460.300781 1424.988281 1446.261719 1440.640625 1437.371094 1447.800781 C 1430.25 1454.851562 1419.429688 1461.371094 1404.929688 1467.351562 C 1392.191406 1471.980469 1377.5 1473.980469 1360.851562 1473.359375 C 1343.191406 1472.621094 1320 1469.269531 1291.28125 1463.320312 L 1307.421875 1484.941406 L 1387.730469 1513.699219 L 1449.21875 1499.609375 L 1477.890625 1471.890625 L 1522.710938 1437.558594 L 1558.398438 1487.039062 L 1658.148438 1514.421875 L 1719.5 1452.109375 "/>
<path fill-rule="nonzero" fill="rgb(85.546875%, 49.804688%, 14.109802%)" fill-opacity="1" d="M 2209.359375 1854.148438 L 2207.128906 1858.488281 C 2196.449219 1880.238281 2184.820312 1898.890625 2172.238281 1914.441406 C 2161.46875 1927.109375 2152.199219 1936.730469 2144.410156 1943.308594 L 2130.339844 1955.019531 L 2101.179688 1976.980469 C 2094.25 1982.871094 2090.429688 1986.390625 2089.730469 1987.550781 C 2083.230469 1994.519531 2080.800781 2001.550781 2082.449219 2008.621094 C 2084.230469 2016.882812 2091.5 2027.585938 2104.261719 2040.730469 L 2177.300781 1997.359375 L 2223.75 1950.421875 L 2261.289062 1873.378906 L 2209.359375 1854.148438 "/>
<path fill-rule="nonzero" fill="rgb(85.546875%, 49.804688%, 14.109802%)" fill-opacity="1" d="M 1699.871094 2092.785156 L 1693.910156 2101.425781 C 1676.03125 2127.390625 1660.519531 2147.132812 1647.378906 2160.644531 C 1634.269531 2174.929688 1616.160156 2190.886719 1593.070312 2208.511719 C 1588.191406 2212.808594 1583.609375 2217.863281 1579.320312 2223.671875 C 1575.058594 2229.546875 1571.171875 2236.625 1567.679688 2244.914062 L 1547.058594 2297.550781 C 1543.320312 2305.796875 1539.089844 2312.800781 1534.359375 2318.5625 C 1527.601562 2328.023438 1513.929688 2337.773438 1493.359375 2347.816406 C 1483.839844 2339.917969 1477.371094 2332.332031 1473.941406 2325.050781 C 1471.058594 2319.09375 1469.378906 2315.230469 1468.898438 2313.457031 C 1459.578125 2282.773438 1453.808594 2265.378906 1451.589844 2261.28125 C 1447.140625 2250.902344 1441.628906 2241.800781 1435.039062 2233.96875 C 1429.878906 2227.082031 1420.941406 2219.34375 1408.230469 2210.757812 C 1405.820312 2208.722656 1390.171875 2200.449219 1361.289062 2185.9375 C 1353.5 2181.339844 1348.890625 2178.445312 1347.46875 2177.257812 C 1340 2172.34375 1330.03125 2163.605469 1317.558594 2151.042969 C 1292.210938 2124.140625 1272 2099.289062 1256.929688 2076.496094 C 1246.199219 2059.304688 1239.238281 2042.507812 1236.070312 2026.105469 L 1313.441406 2089.28125 L 1432.671875 2154.851562 L 1505.558594 2165.011719 L 1633.238281 2129.121094 L 1699.871094 2092.785156 "/>
<path fill-rule="nonzero" fill="rgb(85.546875%, 49.804688%, 14.109802%)" fill-opacity="1" d="M 936.964844 929.121094 L 886.707031 1081.308594 C 874.28125 1156.160156 862.058594 1209.328125 850.035156 1240.808594 C 836.640625 1275.078125 821.8125 1296.230469 805.554688 1304.25 C 783.765625 1317.039062 753.722656 1316.789062 715.429688 1303.46875 C 687.25 1293.378906 661.398438 1272.148438 637.875 1239.769531 C 636.769531 1266.949219 640.035156 1287.21875 647.675781 1300.570312 C 653.851562 1313.960938 671.308594 1333.808594 700.046875 1360.109375 L 854.941406 1391.878906 L 934.617188 1034.429688 L 936.964844 929.121094 "/>
<path fill-rule="nonzero" fill="rgb(85.546875%, 49.804688%, 14.109802%)" fill-opacity="1" d="M 2040.390625 882.769531 L 2078.089844 981.710938 C 2102.949219 1084.480469 2122.679688 1158.109375 2137.261719 1202.601562 C 2152.128906 1245.378906 2166.738281 1273.25 2181.089844 1286.191406 C 2194.019531 1301.269531 2214.039062 1309.488281 2241.128906 1310.859375 C 2266.589844 1311.640625 2303.820312 1304.621094 2352.820312 1289.800781 L 2261.289062 1374.671875 L 2154.878906 1392.609375 C 2132.761719 1313.859375 2099.640625 1189.589844 2055.539062 1019.789062 L 2040.390625 882.769531 "/>
<path fill-rule="nonzero" fill="rgb(85.546875%, 49.804688%, 14.109802%)" fill-opacity="1" d="M 1999.398438 2033.464844 L 1995.410156 2053.46875 C 1987.039062 2094.121094 1980.429688 2131.84375 1975.589844 2166.644531 C 1972.539062 2194.003906 1971.21875 2209.570312 1971.628906 2213.351562 C 1971.390625 2222.660156 1971.691406 2231.074219 1972.539062 2238.597656 C 1973.410156 2246.0625 1974.828125 2252.632812 1976.789062 2258.308594 L 1980.050781 2266.277344 C 1982.46875 2271.183594 1985.28125 2275.4375 1988.480469 2279.039062 C 1996.289062 2288.375 2010.25 2296.433594 2030.339844 2303.21875 L 1971.640625 2327.046875 C 1965.828125 2328.507812 1961.609375 2329.335938 1958.988281 2329.53125 C 1951.140625 2331.679688 1926.359375 2328.542969 1884.660156 2320.117188 L 1999.398438 2033.464844 "/>
<path fill-rule="nonzero" fill="rgb(85.546875%, 49.804688%, 14.109802%)" fill-opacity="1" d="M 1036.808594 2059.167969 L 1035.5 2065.324219 C 1030.320312 2087.519531 1028.988281 2108.445312 1031.511719 2128.101562 C 1032.191406 2133.679688 1033.21875 2139.589844 1034.589844 2145.824219 L 1036.929688 2155.441406 L 1051.929688 2207.300781 C 1053.839844 2214.253906 1055.449219 2220.996094 1056.75 2227.523438 C 1059.550781 2240.742188 1059.941406 2252.132812 1057.941406 2261.695312 C 1056.789062 2266.351562 1054.898438 2270.4375 1052.28125 2273.953125 L 1047.910156 2278.878906 C 1044.660156 2281.90625 1040.890625 2284.519531 1036.578125 2286.71875 C 1026.078125 2292.425781 1007.289062 2297.226562 980.214844 2301.128906 C 1031.371094 2313.113281 1064.269531 2319.152344 1078.910156 2319.238281 C 1097.488281 2319.757812 1111.429688 2315.566406 1120.738281 2306.660156 L 1036.808594 2059.167969 "/>
<path fill-rule="nonzero" fill="rgb(88.28125%, 7.446289%, 25.097656%)" fill-opacity="1" d="M 2303.730469 855.941406 L 2411.539062 862.308594 L 2457.160156 884.269531 C 2519.890625 890.53125 2562.238281 888.140625 2584.21875 877.121094 C 2605.199219 869.03125 2627.480469 850.191406 2651.058594 820.601562 L 2670.121094 795.980469 L 2684.308594 751.609375 C 2693.628906 722.101562 2695.621094 696.011719 2690.300781 673.339844 C 2688.980469 666.410156 2684.78125 655.800781 2677.660156 641.519531 C 2652.46875 595.019531 2638.148438 570.441406 2634.71875 567.78125 C 2620 549.171875 2606.320312 537.558594 2593.671875 532.980469 C 2580.019531 525.511719 2552.359375 519.378906 2510.691406 514.601562 C 2460.738281 510.28125 2423.789062 516.03125 2399.839844 531.851562 C 2385.109375 539.570312 2362.050781 559.589844 2330.660156 591.929688 C 2317.25 609.871094 2308.25 622.78125 2303.640625 630.660156 C 2289.890625 654.28125 2283.25 673.300781 2283.71875 687.710938 C 2281.429688 710.28125 2294.640625 746.78125 2323.378906 797.191406 L 2303.730469 855.941406 "/>
<path fill-rule="nonzero" fill="rgb(100%, 96.484375%, 97.264099%)" fill-opacity="1" d="M 2684.679688 678 L 2677.648438 667.570312 C 2647.648438 621.191406 2619.78125 588.308594 2594.039062 568.921875 C 2588.53125 564.851562 2582.890625 561.179688 2577.109375 557.921875 L 2568.359375 553.300781 C 2562.46875 550.410156 2556.488281 547.890625 2550.449219 545.738281 C 2544.398438 543.578125 2538.308594 541.769531 2532.199219 540.28125 C 2529.121094 539.160156 2519.960938 537.640625 2504.730469 535.738281 C 2481.601562 534.179688 2462.210938 535.300781 2446.570312 539.121094 C 2429.578125 542.820312 2413.929688 548.519531 2399.628906 556.199219 C 2375.351562 568.449219 2348.578125 592.851562 2319.328125 629.398438 L 2338.960938 581.761719 L 2385.800781 534.121094 L 2496.648438 508.03125 L 2607.75 548.488281 L 2658.398438 600.710938 L 2684.679688 678 "/>
<path fill-rule="nonzero" fill="rgb(0%, 0%, 0%)" fill-opacity="1" d="M 1748.160156 1758.75 L 1748.171875 1758.75 L 1748.660156 1758.640625 C 1879.089844 1728.679688 2003.359375 1699.558594 2068.570312 1629.171875 C 2133.140625 1559.460938 2141.511719 1446.171875 2127.238281 1358.289062 C 2120.511719 1316.851562 2108.851562 1281.769531 2096.21875 1243.871094 C 2082.398438 1202.390625 2067.550781 1157.871094 2057.941406 1099.75 C 2054.46875 1078.730469 2051.679688 1055.980469 2048.800781 1032.398438 C 2045.589844 1006.179688 2042.238281 978.808594 2037.628906 950.898438 C 2024.46875 871.308594 2001.21875 788.75 1943.46875 720.421875 C 1846.421875 605.609375 1649.75 528.28125 1484.628906 527.320312 C 1483.601562 527.320312 1482.558594 527.308594 1481.539062 527.308594 C 1319 527.308594 1187.808594 601.519531 1104.121094 680.539062 C 1020.378906 759.628906 984.660156 843.179688 963.421875 931.210938 C 952.671875 975.769531 945.660156 1021.339844 938.121094 1070.390625 C 930.707031 1118.628906 922.804688 1170.070312 910.359375 1226.210938 C 907.628906 1238.511719 904.6875 1251.039062 901.726562 1263.621094 C 898.679688 1276.578125 895.613281 1289.609375 892.699219 1302.75 C 872.242188 1395.039062 860.667969 1487.421875 916.578125 1564.121094 C 989.890625 1664.691406 1181.378906 1742.328125 1341.429688 1771.058594 C 1397.550781 1781.140625 1449.308594 1785.089844 1498.269531 1785.089844 C 1587.640625 1785.089844 1667.761719 1771.949219 1748.929688 1758.609375 L 1748.160156 1758.75 M 1753.671875 1782.730469 C 1753.421875 1782.78125 1753.171875 1782.828125 1752.910156 1782.871094 C 1671.941406 1796.191406 1589.941406 1809.691406 1498.269531 1809.691406 C 1447.949219 1809.691406 1394.730469 1805.621094 1337.078125 1795.269531 C 1175.890625 1766.328125 975.964844 1687.339844 896.703125 1578.609375 C 833.710938 1492.199219 848.277344 1389.5 868.6875 1297.429688 C 871.640625 1284.109375 874.742188 1270.929688 877.785156 1257.988281 C 880.75 1245.378906 883.660156 1233 886.347656 1220.878906 C 898.59375 1165.640625 906.386719 1114.949219 913.8125 1066.648438 C 921.324219 1017.789062 928.476562 971.179688 939.511719 925.441406 C 961.527344 834.179688 999.101562 745.890625 1087.230469 662.660156 C 1174.351562 580.398438 1311.320312 502.71875 1481.539062 502.71875 C 1482.609375 502.71875 1483.699219 502.71875 1484.769531 502.730469 C 1655.328125 503.710938 1859.539062 583.039062 1962.25 704.550781 C 2024.269531 777.929688 2048.480469 865.730469 2061.890625 946.890625 C 2066.609375 975.378906 2070.019531 1003.261719 2073.21875 1029.410156 C 2076.109375 1053.109375 2078.828125 1075.320312 2082.210938 1095.738281 C 2091.46875 1151.761719 2105.738281 1194.648438 2119.558594 1236.101562 C 2132.128906 1273.839844 2144.429688 1310.691406 2151.519531 1354.339844 C 2166.210938 1444.839844 2158.949219 1567.800781 2086.609375 1645.890625 C 2015.078125 1723.089844 1881.609375 1753.339844 1754.160156 1782.609375 Z M 1753.671875 1782.730469 "/>
<path fill-rule="nonzero" fill="rgb(0%, 0%, 0%)" fill-opacity="1" d="M 1796.839844 584.929688 L 1785.289062 572.648438 C 1897.519531 579.441406 2016.609375 586.039062 2096.519531 675 C 2150.101562 734.648438 2185.179688 830.71875 2217.058594 917.519531 C 2232.230469 958.820312 2246.71875 998.21875 2262.21875 1031.929688 C 2285.011719 1081.480469 2310.160156 1118.988281 2331.230469 1150.410156 C 2345.78125 1172.109375 2358.929688 1191.648438 2367.359375 1209.960938 C 2372.488281 1221.121094 2376.128906 1232.339844 2377.21875 1243.871094 C 2382.691406 1301.371094 2324.808594 1351.179688 2279.511719 1375.820312 C 2231.648438 1401.859375 2189.289062 1404.988281 2149.300781 1408.039062 C 2142.53125 1408.558594 2136.621094 1403.488281 2136.101562 1396.71875 C 2135.589844 1389.941406 2140.660156 1384.039062 2147.429688 1383.519531 C 2187.378906 1380.46875 2224.960938 1377.5 2267.761719 1354.210938 C 2313.109375 1329.539062 2356.601562 1286.828125 2352.738281 1246.199219 C 2351.980469 1238.269531 2349.410156 1229.800781 2345.011719 1220.238281 C 2337.589844 1204.109375 2325.71875 1186.351562 2310.808594 1164.109375 C 2289.699219 1132.648438 2263.570312 1093.710938 2239.878906 1042.210938 C 2223.878906 1007.441406 2209.058594 967.058594 2193.980469 926 C 2161.519531 837.628906 2127.949219 746.800781 2078.21875 691.429688 C 2006.21875 611.269531 1898.441406 604.140625 1783.808594 597.199219 C 1777.308594 596.808594 1772.25 591.429688 1772.25 584.929688 C 1772.25 578.140625 1777.75 572.628906 1784.550781 572.628906 C 1791.339844 572.628906 1796.839844 578.140625 1796.839844 584.929688 Z M 1796.839844 584.929688 "/>
<path fill-rule="nonzero" fill="rgb(0%, 0%, 0%)" fill-opacity="1" d="M 1224.160156 586.53125 C 1224.160156 593.03125 1219.101562 598.410156 1212.609375 598.808594 C 1097.96875 605.738281 990.199219 612.871094 918.195312 693.03125 C 868.457031 748.398438 834.890625 839.238281 802.4375 927.601562 C 787.355469 968.660156 772.53125 1009.050781 756.535156 1043.820312 C 732.84375 1095.308594 706.707031 1134.261719 685.605469 1165.71875 C 670.691406 1187.960938 658.824219 1205.710938 651.402344 1221.839844 C 647.003906 1231.398438 644.425781 1239.871094 643.671875 1247.808594 C 639.808594 1288.429688 683.300781 1331.148438 728.65625 1355.820312 C 771.453125 1379.101562 809.035156 1382.070312 848.984375 1385.121094 C 855.753906 1385.640625 860.824219 1391.550781 860.308594 1398.320312 C 859.792969 1405.089844 853.882812 1410.160156 847.109375 1409.648438 C 807.121094 1406.589844 764.761719 1403.460938 716.902344 1377.429688 C 671.601562 1352.78125 613.71875 1302.980469 619.1875 1245.480469 C 620.285156 1233.949219 623.917969 1222.730469 629.058594 1211.558594 C 637.476562 1193.261719 650.628906 1173.710938 665.179688 1152.019531 C 686.253906 1120.589844 711.398438 1083.078125 734.191406 1033.539062 C 749.699219 999.820312 764.179688 960.429688 779.351562 919.121094 C 811.230469 832.320312 846.3125 736.25 899.894531 676.601562 C 979.800781 587.640625 1098.890625 581.050781 1211.121094 574.261719 L 1199.570312 586.53125 C 1199.570312 579.738281 1205.070312 574.230469 1211.859375 574.230469 C 1218.660156 574.230469 1224.160156 579.738281 1224.160156 586.53125 Z M 1224.160156 586.53125 "/>
<path fill-rule="nonzero" fill="rgb(0%, 0%, 0%)" fill-opacity="1" d="M 1654.25 1336.449219 L 1652.808594 1347.699219 C 1646.03125 1370.371094 1626.179688 1388.5 1593.261719 1402.089844 C 1560.121094 1415.671875 1521.089844 1421.179688 1476.171875 1418.609375 C 1433.308594 1415.019531 1399.019531 1404.519531 1373.320312 1387.121094 C 1365.078125 1381.488281 1358.300781 1375.359375 1352.96875 1368.71875 L 1346.25 1358.488281 C 1342.558594 1351.449219 1340.691406 1344.101562 1340.648438 1336.449219 C 1341.769531 1312.960938 1357.078125 1293.410156 1386.570312 1277.808594 C 1416.070312 1262.210938 1453.03125 1254.121094 1497.441406 1253.53125 C 1541.871094 1254.121094 1578.820312 1262.210938 1608.320312 1277.808594 C 1637.820312 1293.410156 1653.128906 1312.960938 1654.25 1336.449219 "/>
<path fill-rule="nonzero" fill="rgb(100%, 100%, 100%)" fill-opacity="1" d="M 1584.980469 1295.019531 L 1584.199219 1297.460938 C 1580.511719 1302.390625 1569.730469 1306.339844 1551.851562 1309.289062 C 1533.851562 1312.25 1512.648438 1313.441406 1488.25 1312.890625 C 1464.96875 1312.109375 1446.351562 1309.820312 1432.390625 1306.039062 C 1427.910156 1304.808594 1424.230469 1303.480469 1421.339844 1302.039062 L 1417.679688 1299.808594 C 1415.679688 1298.28125 1414.660156 1296.679688 1414.640625 1295.019531 C 1415.25 1289.910156 1423.570312 1285.660156 1439.589844 1282.269531 C 1455.609375 1278.871094 1475.679688 1277.109375 1499.808594 1276.980469 C 1523.941406 1277.109375 1544.011719 1278.871094 1560.03125 1282.269531 C 1576.050781 1285.660156 1584.371094 1289.910156 1584.980469 1295.019531 "/>
<path fill-rule="nonzero" fill="rgb(0%, 0%, 0%)" fill-opacity="1" d="M 1820.738281 1163.128906 L 1820.511719 1163.949219 C 1819.410156 1165.609375 1816.21875 1166.941406 1810.921875 1167.929688 C 1805.578125 1168.929688 1799.289062 1169.328125 1792.058594 1169.140625 C 1785.160156 1168.878906 1779.640625 1168.109375 1775.5 1166.839844 C 1774.171875 1166.429688 1773.078125 1165.980469 1772.21875 1165.488281 L 1771.140625 1164.738281 C 1770.539062 1164.230469 1770.238281 1163.691406 1770.238281 1163.128906 C 1770.421875 1161.410156 1772.878906 1159.980469 1777.628906 1158.839844 C 1782.378906 1157.691406 1788.339844 1157.101562 1795.488281 1157.058594 C 1802.640625 1157.101562 1808.589844 1157.691406 1813.339844 1158.839844 C 1818.089844 1159.980469 1820.558594 1161.410156 1820.738281 1163.128906 "/>
<path fill-rule="nonzero" fill="rgb(0%, 0%, 0%)" fill-opacity="1" d="M 1834.980469 1124.648438 C 1834.980469 1177.320312 1800.691406 1220.011719 1758.390625 1220.011719 C 1716.089844 1220.011719 1681.808594 1177.320312 1681.808594 1124.648438 C 1681.808594 1071.980469 1716.089844 1029.289062 1758.390625 1029.289062 C 1800.691406 1029.289062 1834.980469 1071.980469 1834.980469 1124.648438 Z M 1834.980469 1124.648438 "/>
<path fill-rule="nonzero" fill="rgb(100%, 100%, 100%)" fill-opacity="1" d="M 1769.601562 1114.488281 C 1768.640625 1137.941406 1753.921875 1156.371094 1736.730469 1155.660156 C 1719.53125 1154.960938 1706.371094 1135.378906 1707.328125 1111.941406 C 1708.289062 1088.5 1723.011719 1070.070312 1740.210938 1070.769531 C 1757.398438 1071.480469 1770.558594 1091.050781 1769.601562 1114.488281 Z M 1769.601562 1114.488281 "/>
<path fill-rule="nonzero" fill="rgb(0%, 0%, 0%)" fill-opacity="1" d="M 1168.480469 1128.328125 C 1168.480469 1075.660156 1202.769531 1032.960938 1245.058594 1032.960938 C 1287.359375 1032.960938 1321.648438 1075.660156 1321.648438 1128.328125 C 1321.648438 1180.988281 1287.359375 1223.691406 1245.058594 1223.691406 C 1202.769531 1223.691406 1168.480469 1180.988281 1168.480469 1128.328125 Z M 1168.480469 1128.328125 "/>
<path fill-rule="nonzero" fill="rgb(100%, 100%, 100%)" fill-opacity="1" d="M 1237.429688 1115.761719 C 1238.441406 1090.988281 1251.609375 1071.410156 1266.820312 1072.039062 C 1282.039062 1072.660156 1293.558594 1093.25 1292.539062 1118.019531 C 1291.53125 1142.789062 1278.371094 1162.371094 1263.148438 1161.75 C 1247.929688 1161.121094 1236.410156 1140.539062 1237.429688 1115.761719 Z M 1237.429688 1115.761719 "/>
<path fill-rule="nonzero" fill="rgb(0%, 0%, 0%)" fill-opacity="1" d="M 1490.839844 1387.890625 L 1491.320312 1387.21875 C 1496.78125 1378.25 1503.929688 1364.628906 1512.789062 1346.359375 C 1516.210938 1339.558594 1517.320312 1336.011719 1516.109375 1335.710938 C 1513.929688 1334.289062 1509.851562 1334.488281 1503.839844 1336.339844 C 1501.429688 1337.269531 1500.058594 1339.320312 1499.71875 1342.5 C 1498.640625 1370.191406 1499.140625 1392.660156 1501.230469 1409.910156 C 1502.988281 1425.429688 1505.878906 1439.210938 1509.890625 1451.25 C 1516.378906 1469.871094 1524.921875 1484.359375 1535.511719 1494.710938 C 1540.160156 1499.429688 1544.390625 1503.101562 1548.199219 1505.710938 C 1562.609375 1513.121094 1571.230469 1517.058594 1574.078125 1517.53125 C 1603.160156 1526.910156 1632.179688 1527.371094 1661.160156 1518.890625 C 1685.769531 1512.160156 1707.871094 1495.398438 1727.449219 1468.621094 C 1731.078125 1463.46875 1734.941406 1457.289062 1739.050781 1450.058594 L 1757.121094 1414.660156 C 1738.871094 1435.851562 1722.078125 1452.578125 1706.75 1464.871094 C 1696.78125 1473.550781 1683.589844 1480.738281 1667.179688 1486.441406 C 1636.121094 1494.519531 1606.730469 1490.710938 1579.019531 1475.03125 C 1566.761719 1466.039062 1560.441406 1460.96875 1560.070312 1459.828125 C 1552.960938 1451.921875 1547.710938 1443.980469 1544.308594 1435.988281 C 1535.019531 1415.648438 1527.410156 1381.910156 1521.488281 1334.769531 C 1521.820312 1333.339844 1519.21875 1331.308594 1513.691406 1328.679688 C 1505.378906 1326.179688 1500.660156 1327.160156 1499.539062 1331.628906 C 1490.359375 1368.921875 1487.460938 1387.679688 1490.839844 1387.890625 "/>
<path fill-rule="nonzero" fill="rgb(0%, 0%, 0%)" fill-opacity="1" d="M 1525.53125 1379.859375 L 1525.390625 1379.050781 C 1519.679688 1357.378906 1513.929688 1339.601562 1508.160156 1325.710938 C 1504.429688 1319.808594 1499.691406 1319.910156 1493.960938 1326 C 1490.519531 1328.75 1488.191406 1332.230469 1486.980469 1336.421875 C 1484.921875 1381.609375 1482.5 1408.398438 1479.730469 1416.800781 C 1476.761719 1431.621094 1472.460938 1443.589844 1466.828125 1452.699219 C 1462.5 1460.460938 1454.089844 1469.320312 1441.601562 1479.289062 C 1429.589844 1487.75 1415.890625 1493.578125 1400.488281 1496.78125 C 1374.46875 1501.589844 1352.21875 1499.269531 1333.730469 1489.800781 C 1312.53125 1479.570312 1288.351562 1461.589844 1261.210938 1435.851562 L 1282.921875 1469.101562 C 1287.261719 1475.25 1291.988281 1481.269531 1297.128906 1487.171875 C 1307.25 1498.539062 1318.710938 1508.089844 1331.5 1515.800781 C 1357.511719 1530.96875 1388.289062 1535.25 1423.859375 1528.640625 C 1444.890625 1523.949219 1462.910156 1516 1477.929688 1504.769531 C 1491.25 1492.769531 1500.859375 1478.238281 1506.761719 1461.179688 C 1515.199219 1437.871094 1517.269531 1405.46875 1512.960938 1363.960938 C 1511.308594 1348.648438 1509.671875 1337.078125 1508.058594 1329.230469 C 1507.410156 1327.980469 1504.511719 1327.96875 1499.359375 1329.191406 C 1496.339844 1330.160156 1494.269531 1331.570312 1493.171875 1333.390625 C 1492.710938 1334.289062 1492.761719 1335.230469 1493.320312 1336.199219 C 1503.25 1352.328125 1509.769531 1362.46875 1512.878906 1366.628906 C 1518.851562 1375.820312 1523.070312 1380.21875 1525.53125 1379.859375 "/>
<path fill-rule="nonzero" fill="rgb(0%, 0%, 0%)" fill-opacity="1" d="M 1406.011719 1518.75 L 1406.019531 1518.820312 C 1407.351562 1562.390625 1409.511719 1594.570312 1435.730469 1610.441406 C 1449.589844 1618.839844 1471.628906 1623.640625 1495.128906 1623.640625 C 1518.859375 1623.640625 1541.320312 1618.75 1555.429688 1610.359375 C 1581.671875 1594.78125 1583.820312 1564.03125 1585.230469 1522.121094 C 1585.488281 1514.640625 1591.75 1508.789062 1599.230469 1509.039062 C 1606.710938 1509.289062 1612.570312 1515.558594 1612.320312 1523.039062 C 1611.058594 1560.519531 1610.539062 1609.160156 1569.269531 1633.660156 C 1549.460938 1645.429688 1521.609375 1650.75 1495.128906 1650.75 C 1468.929688 1650.75 1441.371094 1645.539062 1421.691406 1633.621094 C 1380.519531 1608.691406 1380.121094 1558.480469 1378.929688 1519.648438 L 1378.921875 1519.578125 C 1378.691406 1512.101562 1384.570312 1505.851562 1392.058594 1505.621094 C 1399.53125 1505.390625 1405.78125 1511.269531 1406.011719 1518.75 Z M 1406.011719 1518.75 "/>
<path fill-rule="nonzero" fill="rgb(0%, 0%, 0%)" fill-opacity="1" d="M 1070.769531 1696.128906 C 1070.769531 1697.941406 1070.410156 1699.730469 1069.699219 1701.390625 C 1038.71875 1774.871094 1009.171875 1845.390625 1020.269531 1943.128906 C 1031.53125 2042.382812 1084.570312 2170.078125 1138.898438 2300.535156 C 1140.691406 2304.847656 1140.140625 2309.78125 1137.441406 2313.589844 C 1100.171875 2366.101562 1067.679688 2412.925781 1068.140625 2453.375 C 1068.578125 2491.78125 1100.300781 2528.96875 1147.191406 2550.167969 C 1176.800781 2563.554688 1211.53125 2569.96875 1248.519531 2569.96875 C 1268.980469 2569.96875 1290.039062 2568.003906 1311.179688 2564.214844 C 1370.761719 2553.539062 1430.628906 2528.472656 1492.230469 2502.621094 L 1483.921875 2514.996094 L 1486.980469 2171.023438 L 1496.320312 2184.023438 C 1425.269531 2160.75 1351.609375 2136.742188 1295.160156 2097.121094 C 1238.441406 2057.3125 1199.78125 2002.261719 1162.609375 1949.53125 C 1158.289062 1943.421875 1159.75 1934.960938 1165.871094 1930.648438 C 1171.980469 1926.339844 1180.441406 1927.808594 1184.75 1933.921875 C 1222.359375 1987.261719 1258.488281 2038.277344 1310.730469 2074.9375 C 1363.230469 2111.789062 1432.679688 2134.660156 1504.75 2158.269531 C 1510.359375 2160.105469 1514.140625 2165.363281 1514.078125 2171.265625 L 1511.019531 2515.234375 C 1510.980469 2520.648438 1507.710938 2525.515625 1502.71875 2527.609375 C 1441.730469 2553.207031 1379.019531 2579.589844 1315.960938 2590.894531 C 1293.359375 2594.941406 1270.699219 2597.070312 1248.519531 2597.070312 C 1208.539062 2597.070312 1169.839844 2590.15625 1136.03125 2574.863281 C 1084.351562 2551.5 1041.648438 2507.046875 1041.039062 2453.683594 C 1040.449219 2402.363281 1080.289062 2347.289062 1115.339844 2297.902344 L 1113.878906 2310.957031 C 1060.148438 2181.929688 1005.128906 2050.140625 993.335938 1946.191406 C 981.367188 1840.71875 1013.761719 1764.308594 1044.730469 1690.859375 L 1043.660156 1696.128906 C 1043.660156 1688.640625 1049.730469 1682.578125 1057.210938 1682.578125 C 1064.699219 1682.578125 1070.769531 1688.640625 1070.769531 1696.128906 Z M 1070.769531 1696.128906 "/>
<path fill-rule="nonzero" fill="rgb(0%, 0%, 0%)" fill-opacity="1" d="M 1512.890625 2167.21875 L 1495.679688 2154.175781 C 1561.828125 2135.589844 1625.351562 2117.621094 1679.230469 2080.582031 C 1733.28125 2043.4375 1778.351562 1986.640625 1824.988281 1927.679688 C 1829.628906 1921.808594 1838.160156 1920.808594 1844.019531 1925.460938 C 1849.890625 1930.101562 1850.890625 1938.621094 1846.25 1944.488281 C 1800.230469 2002.671875 1752.640625 2063.019531 1694.589844 2102.917969 C 1636.378906 2142.925781 1568.371094 2161.902344 1503 2180.265625 C 1498.921875 2181.414062 1494.539062 2180.582031 1491.160156 2178.019531 C 1487.769531 2175.457031 1485.789062 2171.460938 1485.789062 2167.21875 C 1485.789062 2159.734375 1491.859375 2153.667969 1499.339844 2153.667969 C 1506.820312 2153.667969 1512.890625 2159.734375 1512.890625 2167.21875 Z M 1512.890625 2167.21875 "/>
<path fill-rule="nonzero" fill="rgb(0%, 0%, 0%)" fill-opacity="1" d="M 1514.710938 2492.460938 L 1508.320312 2480.960938 C 1561.429688 2514.039062 1612.488281 2545.71875 1680 2559.816406 C 1705.558594 2565.15625 1733.601562 2567.988281 1761.339844 2567.988281 C 1807.351562 2567.988281 1851.050781 2560.203125 1881.019531 2544.449219 C 1927.839844 2519.84375 1943.421875 2474.324219 1937.441406 2435.519531 C 1931.398438 2396.28125 1903.300781 2363.199219 1871.429688 2326.363281 C 1868.089844 2322.496094 1867.199219 2317.070312 1869.148438 2312.34375 C 1918.121094 2193.304688 1966.058594 2076.542969 1980.128906 1978.71875 C 1994.070312 1881.769531 1974.738281 1802.910156 1954.679688 1721.589844 C 1952.890625 1714.328125 1957.328125 1706.980469 1964.589844 1705.191406 C 1971.859375 1703.398438 1979.199219 1707.839844 1981 1715.109375 C 2001 1796.21875 2021.730469 1879.808594 2006.949219 1982.578125 C 1992.300781 2084.46875 1942.738281 2204.699219 1894.210938 2322.652344 L 1891.929688 2308.632812 C 1922.46875 2343.941406 1956.78125 2383.007812 1964.230469 2431.394531 C 1971.75 2480.222656 1951.898438 2537.8125 1893.628906 2568.441406 C 1858.21875 2587.046875 1809.578125 2595.089844 1761.339844 2595.089844 C 1731.828125 2595.089844 1701.929688 2592.085938 1674.460938 2586.347656 C 1601.628906 2571.136719 1546.789062 2536.851562 1494 2503.964844 C 1490.019531 2501.492188 1487.609375 2497.140625 1487.609375 2492.460938 C 1487.609375 2484.976562 1493.679688 2478.910156 1501.160156 2478.910156 C 1508.640625 2478.910156 1514.710938 2484.976562 1514.710938 2492.460938 Z M 1514.710938 2492.460938 "/>
<path fill-rule="nonzero" fill="rgb(0%, 0%, 0%)" fill-opacity="1" d="M 2021.390625 1923 L 2016.390625 1912.480469 C 2051.769531 1941.261719 2090.308594 1972.308594 2110.191406 2027.894531 C 2129.609375 2082.214844 2130.910156 2159.0625 2121.179688 2206.585938 C 2110.941406 2256.558594 2088.160156 2275.808594 2067.289062 2293.316406 L 2062.601562 2269.992188 C 2112.679688 2285.554688 2169.679688 2302.652344 2198.769531 2343.273438 C 2228.199219 2384.363281 2227.589844 2446.140625 2204.429688 2491.914062 C 2180.800781 2538.609375 2133.789062 2569.3125 2080.910156 2576.882812 C 2071.339844 2578.253906 2061.628906 2578.859375 2051.851562 2578.859375 C 2007.960938 2578.859375 1961 2566.570312 1916.25 2554.941406 C 1909 2553.058594 1904.660156 2545.660156 1906.539062 2538.417969 C 1908.421875 2531.175781 1915.820312 2526.828125 1923.058594 2528.710938 C 1968.679688 2540.5625 2012.089844 2551.757812 2051.851562 2551.757812 C 2060.519531 2551.757812 2068.929688 2551.21875 2077.070312 2550.054688 C 2122.261719 2543.585938 2161.070312 2517.558594 2180.25 2479.675781 C 2199.890625 2440.871094 2199.070312 2390.226562 2176.738281 2359.054688 C 2154.078125 2327.414062 2107.78125 2312.410156 2054.558594 2295.871094 C 2049.820312 2294.402344 2046.269531 2290.460938 2045.289062 2285.601562 C 2044.320312 2280.738281 2046.070312 2275.734375 2049.871094 2272.546875 C 2068.988281 2256.515625 2086.210938 2242.226562 2094.628906 2201.148438 C 2103.539062 2157.617188 2102.148438 2085.90625 2084.671875 2037.019531 C 2067.640625 1989.398438 2035.039062 1962.589844 1999.289062 1933.511719 C 1996.128906 1930.929688 1994.289062 1927.070312 1994.289062 1923 C 1994.289062 1915.511719 2000.359375 1909.441406 2007.839844 1909.441406 C 2015.328125 1909.441406 2021.390625 1915.511719 2021.390625 1923 Z M 2021.390625 1923 "/>
<path fill-rule="nonzero" fill="rgb(0%, 0%, 0%)" fill-opacity="1" d="M 1014.109375 1923.558594 C 1014.109375 1927.101562 1012.71875 1930.5 1010.230469 1933.039062 C 972.109375 1971.96875 936.414062 2008.667969 917.703125 2053.457031 C 898.996094 2098.234375 897.027344 2152.035156 905.917969 2190.929688 C 914.613281 2228.980469 933.691406 2252.910156 954.679688 2279.003906 C 957.472656 2282.476562 958.378906 2287.097656 957.105469 2291.367188 C 955.835938 2295.636719 952.542969 2299.007812 948.304688 2300.386719 C 903.101562 2315.066406 863.148438 2328.46875 837.195312 2364.457031 C 809.898438 2402.308594 799.972656 2460.878906 827.570312 2494.960938 C 856.597656 2530.808594 930.484375 2547.0625 985.242188 2549.390625 C 989.863281 2549.585938 994.304688 2549.679688 998.539062 2549.679688 C 1041.960938 2549.679688 1066.988281 2539.960938 1093.5 2529.660156 C 1100.46875 2526.949219 1108.320312 2530.40625 1111.039062 2537.378906 C 1113.75 2544.355469 1110.289062 2552.207031 1103.320312 2554.917969 C 1075.941406 2565.558594 1047.101562 2576.78125 998.539062 2576.78125 C 993.898438 2576.78125 989.089844 2576.679688 984.089844 2576.464844 C 929.527344 2574.144531 843.851562 2558.128906 806.507812 2512.015625 C 767.734375 2464.128906 784.617188 2391.03125 815.214844 2348.605469 C 847.152344 2304.3125 896.171875 2288.820312 939.9375 2274.609375 L 933.5625 2295.992188 C 912.597656 2269.929688 889.71875 2241.703125 879.496094 2196.96875 C 869.464844 2153.085938 871.613281 2093.472656 892.695312 2043.011719 C 913.769531 1992.570312 953.535156 1952.199219 990.871094 1914.078125 L 987.003906 1923.558594 C 987.003906 1916.070312 993.070312 1910 1000.558594 1910 C 1008.039062 1910 1014.109375 1916.070312 1014.109375 1923.558594 Z M 1014.109375 1923.558594 "/>
<path fill-rule="nonzero" fill="rgb(0%, 0%, 0%)" fill-opacity="1" d="M 948.429688 2271.863281 L 948.433594 2271.867188 L 948.605469 2271.996094 L 948.601562 2271.992188 C 962.921875 2282.824219 975.28125 2292.007812 989.644531 2296.925781 C 1004.269531 2301.925781 1021.738281 2302.792969 1041.78125 2303.664062 C 1049.25 2303.988281 1055.050781 2310.3125 1054.730469 2317.789062 C 1054.398438 2325.265625 1048.070312 2331.066406 1040.601562 2330.738281 C 1021.53125 2329.910156 999.894531 2329.074219 980.871094 2322.566406 C 961.726562 2316.015625 945.996094 2304.003906 932.25 2293.605469 L 932.242188 2293.601562 L 932.070312 2293.46875 C 926.109375 2288.960938 924.929688 2280.460938 929.445312 2274.492188 C 933.960938 2268.523438 942.460938 2267.347656 948.429688 2271.863281 Z M 948.429688 2271.863281 "/>
<path fill-rule="nonzero" fill="rgb(0%, 0%, 0%)" fill-opacity="1" d="M 1133.199219 2294.996094 C 1167.839844 2323.117188 1199.320312 2348.316406 1234.359375 2356.21875 C 1243.558594 2358.289062 1253.21875 2359.203125 1263.339844 2359.203125 C 1291.480469 2359.203125 1321.75 2352.21875 1353.960938 2344.710938 C 1361.25 2343.015625 1368.539062 2347.546875 1370.230469 2354.835938 C 1371.929688 2362.121094 1367.398438 2369.410156 1360.109375 2371.105469 C 1328.621094 2378.445312 1295.179688 2386.304688 1263.339844 2386.304688 C 1251.609375 2386.304688 1239.890625 2385.246094 1228.398438 2382.65625 C 1185.980469 2373.089844 1149.460938 2343.101562 1116.121094 2316.035156 C 1110.308594 2311.320312 1109.421875 2302.785156 1114.140625 2296.976562 C 1118.859375 2291.164062 1127.390625 2290.277344 1133.199219 2294.996094 Z M 1133.199219 2294.996094 "/>
<path fill-rule="nonzero" fill="rgb(0%, 0%, 0%)" fill-opacity="1" d="M 1897.671875 2315.40625 C 1897.671875 2319.015625 1896.230469 2322.472656 1893.671875 2325.015625 L 1893.480469 2325.199219 L 1893.480469 2325.203125 C 1865.199219 2353.332031 1833.621094 2385.167969 1791.769531 2395.457031 C 1780.179688 2398.304688 1768.121094 2399.441406 1755.890625 2399.441406 C 1723.808594 2399.441406 1688.660156 2391.53125 1655.460938 2384.117188 C 1648.148438 2382.484375 1643.558594 2375.242188 1645.179688 2367.9375 C 1646.808594 2360.632812 1654.058594 2356.035156 1661.359375 2357.664062 C 1695.351562 2365.253906 1727.390625 2372.339844 1755.890625 2372.339844 C 1766.480469 2372.339844 1776.300781 2371.351562 1785.300781 2369.136719 C 1818.519531 2360.972656 1844.820312 2335.375 1874.371094 2305.984375 L 1874.371094 2305.988281 L 1874.558594 2305.800781 L 1870.570312 2315.40625 C 1870.570312 2307.921875 1876.628906 2301.855469 1884.121094 2301.855469 C 1891.601562 2301.855469 1897.671875 2307.921875 1897.671875 2315.40625 Z M 1897.671875 2315.40625 "/>
<path fill-rule="nonzero" fill="rgb(0%, 0%, 0%)" fill-opacity="1" d="M 2072.980469 2288.738281 L 2072.820312 2288.894531 C 2060.449219 2301.347656 2045.78125 2316.34375 2028.949219 2324.042969 C 2012.789062 2331.433594 1995.761719 2331.699219 1981.570312 2331.699219 C 1980.441406 2331.699219 1979.398438 2331.695312 1978.289062 2331.691406 L 1978.171875 2331.691406 C 1970.691406 2331.675781 1964.640625 2325.59375 1964.648438 2318.109375 C 1964.671875 2310.625 1970.75 2304.574219 1978.238281 2304.589844 L 1978.351562 2304.589844 C 1979.460938 2304.59375 1980.480469 2304.597656 1981.570312 2304.597656 C 1996.039062 2304.597656 2007.519531 2304.046875 2017.679688 2299.394531 C 2029.121094 2294.164062 2040.210938 2283.277344 2053.589844 2269.800781 L 2053.75 2269.640625 C 2059.019531 2264.332031 2067.601562 2264.300781 2072.910156 2269.574219 C 2078.21875 2274.847656 2078.25 2283.425781 2072.980469 2288.738281 Z M 2072.980469 2288.738281 "/>
<path fill-rule="nonzero" fill="rgb(0%, 0%, 0%)" fill-opacity="1" d="M 1745.230469 2579.519531 L 1718.949219 2574.867188 L 1718.949219 2574.859375 L 1718.890625 2575.03125 C 1727.089844 2551.609375 1734.191406 2530.957031 1734.460938 2512.132812 C 1734.730469 2493.609375 1728.378906 2475.921875 1720.839844 2455.441406 C 1718.25 2448.417969 1721.851562 2440.628906 1728.878906 2438.042969 C 1735.890625 2435.457031 1743.691406 2439.054688 1746.269531 2446.078125 C 1753.5 2465.710938 1761.910156 2488.132812 1761.558594 2512.527344 C 1761.210938 2536.621094 1752.28125 2561.6875 1744.46875 2583.992188 L 1744.410156 2584.160156 L 1744.398438 2584.167969 C 1742.28125 2590.234375 1735.921875 2593.984375 1729.398438 2592.878906 C 1722.890625 2591.769531 1718.128906 2586.125 1718.128906 2579.519531 C 1718.128906 2572.035156 1724.191406 2565.96875 1731.679688 2565.96875 C 1739.160156 2565.96875 1745.230469 2572.035156 1745.230469 2579.519531 Z M 1745.230469 2579.519531 "/>
<path fill-rule="nonzero" fill="rgb(0%, 0%, 0%)" fill-opacity="1" d="M 1888.410156 2560.398438 L 1861.609375 2557.582031 C 1867.421875 2530.222656 1872.519531 2505.644531 1871.460938 2487.886719 C 1870.480469 2471.519531 1864.140625 2460.691406 1856.089844 2447.332031 C 1852.230469 2440.917969 1854.308594 2432.59375 1860.71875 2428.734375 C 1867.128906 2424.875 1875.460938 2426.941406 1879.320312 2433.355469 C 1887.359375 2446.71875 1897.109375 2462.625 1898.511719 2486.273438 C 1899.839844 2508.53125 1893.628906 2537.265625 1888.121094 2563.210938 C 1886.679688 2569.996094 1880.351562 2574.597656 1873.449219 2573.875 C 1866.550781 2573.148438 1861.308594 2567.332031 1861.308594 2560.398438 C 1861.308594 2552.914062 1867.378906 2546.847656 1874.859375 2546.847656 C 1882.351562 2546.847656 1888.410156 2552.914062 1888.410156 2560.398438 Z M 1888.410156 2560.398438 "/>
<path fill-rule="nonzero" fill="rgb(0%, 0%, 0%)" fill-opacity="1" d="M 2035.390625 2556.402344 L 2035.390625 2556.40625 L 2010 2549.824219 L 2010 2549.820312 L 2009.851562 2550.085938 C 2018.699219 2533.28125 2025.75 2519.503906 2027.320312 2507.492188 C 2028.789062 2496.140625 2025.398438 2485.332031 2020.628906 2471.101562 C 2018.25 2464.003906 2022.078125 2456.324219 2029.179688 2453.949219 C 2036.269531 2451.570312 2043.949219 2455.398438 2046.328125 2462.492188 C 2050.769531 2475.765625 2056.601562 2492.464844 2054.191406 2510.980469 C 2051.871094 2528.835938 2041.949219 2547.289062 2033.828125 2562.714844 L 2033.691406 2562.980469 L 2033.679688 2562.984375 C 2030.929688 2568.230469 2024.640625 2571.054688 2018.589844 2569.558594 C 2012.539062 2568.0625 2008.289062 2562.636719 2008.289062 2556.40625 L 2008.289062 2556.402344 C 2008.289062 2548.921875 2014.359375 2542.851562 2021.839844 2542.851562 C 2029.320312 2542.851562 2035.390625 2548.921875 2035.390625 2556.402344 Z M 2035.390625 2556.402344 "/>
<path fill-rule="nonzero" fill="rgb(0%, 0%, 0%)" fill-opacity="1" d="M 2141.941406 2543.1875 L 2115.578125 2538.757812 L 2115.671875 2538.496094 L 2115.671875 2538.492188 C 2122.230469 2519.558594 2127.71875 2503.269531 2128.449219 2490.714844 C 2129.121094 2479.195312 2125.691406 2470.355469 2121 2458.796875 C 2118.191406 2451.859375 2121.539062 2443.957031 2128.46875 2441.144531 C 2135.410156 2438.335938 2143.308594 2441.675781 2146.121094 2448.613281 C 2150.710938 2459.929688 2156.570312 2473.972656 2155.511719 2492.28125 C 2154.519531 2509.410156 2147.398438 2529.691406 2141.289062 2547.355469 L 2141.199219 2547.617188 C 2139.03125 2553.871094 2132.660156 2557.648438 2126.140625 2556.550781 C 2119.621094 2555.453125 2114.839844 2549.804688 2114.839844 2543.1875 C 2114.839844 2535.703125 2120.898438 2529.636719 2128.390625 2529.636719 C 2135.871094 2529.636719 2141.941406 2535.703125 2141.941406 2543.1875 Z M 2141.941406 2543.1875 "/>
<path fill-rule="nonzero" fill="rgb(0%, 0%, 0%)" fill-opacity="1" d="M 1300.550781 2578.445312 C 1300.550781 2584.71875 1296.238281 2590.171875 1290.140625 2591.625 C 1284.039062 2593.082031 1277.738281 2590.160156 1274.910156 2584.5625 L 1274.910156 2584.566406 L 1274.808594 2584.382812 L 1274.808594 2584.378906 C 1264.570312 2564.148438 1252.808594 2541.175781 1249.460938 2520.878906 C 1245.929688 2499.402344 1251.808594 2481.746094 1256.46875 2467.261719 C 1258.761719 2460.136719 1266.398438 2456.222656 1273.519531 2458.515625 C 1280.640625 2460.808594 1284.558594 2468.441406 1282.269531 2475.566406 C 1277.460938 2490.503906 1273.871094 2502.273438 1276.210938 2516.472656 C 1278.71875 2531.746094 1288.070312 2550.5625 1298.988281 2572.140625 L 1298.988281 2572.136719 L 1299.089844 2572.324219 L 1273.441406 2578.445312 C 1273.441406 2570.960938 1279.511719 2564.894531 1287 2564.894531 C 1294.480469 2564.894531 1300.550781 2570.960938 1300.550781 2578.445312 Z M 1300.550781 2578.445312 "/>
<path fill-rule="nonzero" fill="rgb(0%, 0%, 0%)" fill-opacity="1" d="M 1151.929688 2557.8125 C 1151.929688 2564.46875 1147.101562 2570.140625 1140.53125 2571.195312 C 1133.960938 2572.246094 1127.589844 2568.371094 1125.511719 2562.046875 L 1125.441406 2561.847656 C 1118.300781 2540.117188 1110.148438 2515.6875 1109.53125 2494.679688 C 1108.871094 2472.6875 1116.378906 2455.226562 1122.550781 2440.523438 C 1125.449219 2433.625 1133.390625 2430.378906 1140.289062 2433.277344 C 1147.191406 2436.175781 1150.441406 2444.121094 1147.539062 2451.019531 C 1141.179688 2466.144531 1136.160156 2478.515625 1136.621094 2493.871094 C 1137.101562 2510.101562 1143.628906 2530.378906 1151.191406 2553.378906 L 1151.261719 2553.578125 L 1124.839844 2557.8125 C 1124.839844 2550.328125 1130.898438 2544.261719 1138.378906 2544.261719 C 1145.871094 2544.261719 1151.929688 2550.328125 1151.929688 2557.8125 Z M 1151.929688 2557.8125 "/>
<path fill-rule="nonzero" fill="rgb(0%, 0%, 0%)" fill-opacity="1" d="M 985.144531 2551.578125 C 985.144531 2558.449219 980.003906 2564.230469 973.183594 2565.035156 C 966.363281 2565.84375 960.015625 2561.417969 958.414062 2554.734375 C 954.195312 2537.117188 949.328125 2517.1875 949.800781 2498.726562 C 950.28125 2479.910156 956.261719 2463.347656 961.332031 2449.039062 C 963.832031 2441.984375 971.578125 2438.292969 978.628906 2440.792969 C 985.683594 2443.292969 989.375 2451.039062 986.875 2458.09375 C 981.609375 2472.957031 977.246094 2485.566406 976.894531 2499.417969 C 976.527344 2513.628906 980.328125 2529.871094 984.773438 2548.421875 L 958.042969 2551.578125 C 958.042969 2544.09375 964.109375 2538.027344 971.59375 2538.027344 C 979.078125 2538.027344 985.144531 2544.09375 985.144531 2551.578125 Z M 985.144531 2551.578125 "/>
<path fill-rule="nonzero" fill="rgb(0%, 0%, 0%)" fill-opacity="1" d="M 890.074219 2532.886719 C 890.074219 2539.554688 885.222656 2545.230469 878.636719 2546.269531 C 872.050781 2547.3125 865.6875 2543.402344 863.632812 2537.058594 C 857.972656 2519.574219 851.144531 2498.988281 851.359375 2481.082031 C 851.585938 2462.238281 859.46875 2447.34375 865.570312 2435.480469 C 868.992188 2428.824219 877.160156 2426.203125 883.816406 2429.625 C 890.472656 2433.046875 893.09375 2441.21875 889.671875 2447.875 C 883.242188 2460.375 878.597656 2469.847656 878.457031 2481.410156 C 878.308594 2493.902344 883.28125 2509.757812 889.417969 2528.710938 L 862.972656 2532.886719 C 862.972656 2525.402344 869.042969 2519.335938 876.523438 2519.335938 C 884.007812 2519.335938 890.074219 2525.402344 890.074219 2532.886719 Z M 890.074219 2532.886719 "/>
<path fill-rule="nonzero" fill="rgb(0%, 0%, 0%)" fill-opacity="1" d="M 2126.140625 2035.566406 L 2104.359375 2024.796875 C 2153.46875 1987.289062 2199.929688 1951.609375 2228.339844 1906.660156 C 2256.628906 1861.890625 2267.609375 1806.828125 2276.148438 1752.941406 C 2284.828125 1698.21875 2289.730469 1651.839844 2279.421875 1622.070312 C 2269.871094 1594.519531 2245.980469 1579.699219 2218.621094 1575.261719 C 2213.78125 1574.480469 2209 1574.050781 2204.378906 1574.050781 C 2183.898438 1574.050781 2165.878906 1582.050781 2156.691406 1608.640625 C 2150.96875 1625.179688 2148.601562 1648.660156 2145.851562 1676.890625 C 2142.699219 1709.121094 2139.128906 1746.441406 2128.019531 1779.441406 C 2107.339844 1840.839844 2061.210938 1885.601562 2018.121094 1927.738281 C 2012.769531 1932.96875 2004.191406 1932.871094 1998.960938 1927.519531 C 1993.730469 1922.171875 1993.820312 1913.589844 1999.171875 1908.359375 C 2043.148438 1865.351562 2084.078125 1824.980469 2102.328125 1770.789062 C 2112.28125 1741.261719 2115.660156 1707.140625 2118.871094 1674.261719 C 2121.5 1647.261719 2124.070312 1620.058594 2131.078125 1599.789062 C 2144.691406 1560.410156 2174.449219 1546.949219 2204.378906 1546.949219 C 2210.648438 1546.949219 2216.890625 1547.519531 2222.960938 1548.511719 C 2257.019531 1554.039062 2291.289062 1573.558594 2305.019531 1613.191406 C 2317.988281 1650.609375 2311.308594 1704.261719 2302.921875 1757.179688 C 2294.398438 1810.941406 2282.839844 1871.140625 2251.238281 1921.140625 C 2219.75 1970.96875 2168.96875 2009.558594 2120.808594 2046.335938 C 2116.71875 2049.460938 2111.199219 2049.996094 2106.578125 2047.710938 C 2101.960938 2045.425781 2099.039062 2040.71875 2099.039062 2035.566406 C 2099.039062 2028.082031 2105.109375 2022.015625 2112.589844 2022.015625 C 2120.070312 2022.015625 2126.140625 2028.082031 2126.140625 2035.566406 Z M 2126.140625 2035.566406 "/>
<path fill-rule="nonzero" fill="rgb(0%, 0%, 0%)" fill-opacity="1" d="M 2125.070312 1783.578125 L 2125.070312 1783.589844 L 2125.238281 1783.730469 L 2125.230469 1783.730469 C 2146.820312 1802.660156 2166.75 1820.019531 2188.179688 1830.660156 C 2209.519531 1841.25 2232.96875 1845.488281 2258.691406 1850.03125 C 2266.058594 1851.339844 2270.980469 1858.371094 2269.679688 1865.738281 C 2268.378906 1873.109375 2261.339844 1878.03125 2253.96875 1876.71875 C 2228.890625 1872.289062 2201.53125 1867.550781 2176.128906 1854.929688 C 2150.949219 1842.429688 2128.328125 1822.5 2107.359375 1804.101562 L 2107.191406 1803.949219 C 2101.570312 1799.019531 2101.011719 1790.460938 2105.949219 1784.828125 C 2110.878906 1779.210938 2119.441406 1778.648438 2125.070312 1783.578125 Z M 2125.070312 1783.578125 "/>
<path fill-rule="nonzero" fill="rgb(0%, 0%, 0%)" fill-opacity="1" d="M 2111.179688 1292.140625 C 2065.699219 1276.011719 2022.570312 1260.839844 1972.941406 1260.839844 C 1964.539062 1260.839844 1955.929688 1261.289062 1947.089844 1262.230469 C 1926.960938 1264.398438 1905.480469 1269.230469 1882.660156 1274.378906 C 1859.390625 1279.640625 1834.808594 1285.199219 1810.621094 1287.808594 C 1801.671875 1288.769531 1792.699219 1289.339844 1783.761719 1289.339844 C 1768.789062 1289.339844 1753.839844 1287.738281 1739.269531 1283.648438 C 1697.378906 1271.890625 1661.339844 1240.058594 1629.910156 1212.589844 C 1609.109375 1194.410156 1590.328125 1178.070312 1571.769531 1167.410156 C 1551.511719 1155.78125 1531.390625 1150.941406 1512.148438 1150.941406 C 1487.199219 1150.941406 1463.089844 1159.089844 1441.730469 1172.199219 C 1425.070312 1182.429688 1410.191406 1195.570312 1393.75 1210.148438 C 1376.480469 1225.46875 1357.671875 1242.191406 1334.78125 1256.238281 C 1329.949219 1259.199219 1324.929688 1262.058594 1319.691406 1264.761719 C 1276.269531 1287.179688 1219.261719 1298.75 1169.441406 1298.75 C 1158.269531 1298.75 1147.371094 1298.171875 1136.980469 1296.980469 C 1105.769531 1293.390625 1079.96875 1284.339844 1057.589844 1276.511719 C 1038.769531 1269.941406 1023.019531 1264.488281 1007.25 1262.488281 C 1002.378906 1261.878906 997.4375 1261.589844 992.421875 1261.589844 C 961.625 1261.589844 929.425781 1272.378906 894.507812 1284.25 C 887.421875 1286.660156 879.726562 1282.859375 877.316406 1275.78125 C 874.910156 1268.691406 878.703125 1260.988281 885.789062 1258.589844 C 919.6875 1247.070312 956.308594 1234.480469 992.421875 1234.480469 C 998.480469 1234.480469 1004.558594 1234.839844 1010.648438 1235.609375 C 1029.769531 1238.03125 1048.289062 1244.558594 1066.53125 1250.929688 C 1089.039062 1258.800781 1112.21875 1266.851562 1140.070312 1270.058594 C 1149.328125 1271.121094 1159.191406 1271.648438 1169.441406 1271.648438 C 1215.789062 1271.648438 1268.371094 1260.761719 1307.25 1240.679688 C 1311.859375 1238.300781 1316.308594 1235.78125 1320.601562 1233.140625 C 1341.171875 1220.519531 1358.289062 1205.371094 1375.769531 1189.871094 C 1391.878906 1175.589844 1408.519531 1160.789062 1427.550781 1149.109375 C 1452.289062 1133.921875 1481.25 1123.839844 1512.148438 1123.839844 C 1536.140625 1123.839844 1560.910156 1129.929688 1585.261719 1143.910156 C 1606.609375 1156.171875 1627.511719 1174.5 1647.75 1192.191406 C 1680.390625 1220.71875 1711.730469 1247.769531 1746.589844 1257.558594 C 1758.289062 1260.839844 1770.699219 1262.238281 1783.761719 1262.238281 C 1791.558594 1262.238281 1799.550781 1261.738281 1807.71875 1260.859375 C 1830.089844 1258.449219 1853.128906 1253.269531 1876.691406 1247.949219 C 1899.160156 1242.871094 1922.21875 1237.660156 1944.191406 1235.289062 C 1954.011719 1234.230469 1963.589844 1233.738281 1972.941406 1233.738281 C 2027.910156 1233.738281 2075.25 1250.648438 2120.230469 1266.589844 C 2127.289062 1269.089844 2130.980469 1276.839844 2128.480469 1283.890625 C 2125.980469 1290.941406 2118.230469 1294.640625 2111.179688 1292.140625 Z M 2111.179688 1292.140625 "/>
<path fill-rule="nonzero" fill="rgb(0%, 0%, 0%)" fill-opacity="1" d="M 2291.730469 853.789062 L 2374.589844 840.980469 C 2377.109375 840.589844 2379.679688 840.980469 2381.980469 842.078125 C 2414.648438 857.78125 2445.5 872.519531 2478.480469 878.460938 C 2488.5 880.269531 2498.699219 881.25 2508.980469 881.25 C 2532.21875 881.25 2556.089844 876.230469 2579.699219 864.089844 C 2614.109375 846.378906 2647.671875 813.761719 2663.179688 770.941406 C 2678.769531 727.910156 2676.519531 673.621094 2656.679688 628.621094 C 2637 583.941406 2600.039062 548.570312 2551.589844 532.128906 C 2531.539062 525.328125 2509.410156 521.730469 2487.109375 521.730469 C 2455.269531 521.730469 2423.601562 529.058594 2397.320312 544.230469 C 2352.289062 570.238281 2321.21875 620.441406 2310.308594 659.890625 C 2299.78125 697.941406 2308.21875 725.289062 2317.78125 755.671875 L 2317.171875 754.109375 L 2333.589844 789.140625 C 2335.070312 792.289062 2335.179688 795.910156 2333.890625 799.148438 L 2305.371094 870.910156 L 2291.730469 853.789062 M 2295.578125 878.710938 C 2291.109375 879.398438 2286.621094 877.640625 2283.800781 874.109375 C 2280.980469 870.570312 2280.269531 865.800781 2281.941406 861.601562 L 2310.46875 789.839844 L 2310.761719 799.839844 L 2294.339844 764.808594 C 2294.101562 764.300781 2293.898438 763.769531 2293.730469 763.230469 C 2284.089844 732.601562 2273.351562 698.929688 2286 653.171875 C 2298.28125 608.808594 2332.761719 552.410156 2384.71875 522.398438 C 2415.441406 504.660156 2451.609375 496.519531 2487.109375 496.519531 C 2512.058594 496.519531 2536.921875 500.53125 2559.679688 508.261719 C 2615.058594 527.039062 2657.320312 567.539062 2679.75 618.449219 C 2702.039062 669.03125 2704.808594 730.039062 2686.878906 779.53125 C 2668.878906 829.238281 2630.371094 866.371094 2591.238281 886.5 C 2563.839844 900.601562 2535.980469 906.460938 2508.980469 906.460938 C 2497.089844 906.460938 2485.390625 905.320312 2474 903.269531 C 2437.089844 896.609375 2403.160156 880.230469 2371.058594 864.800781 L 2378.449219 865.898438 Z M 2295.578125 878.710938 "/>
<path fill-rule="nonzero" fill="rgb(100%, 95.701599%, 91.014099%)" fill-opacity="1" d="M 2491.519531 652.628906 L 2494.609375 651.25 C 2504.691406 646.640625 2513.078125 643.699219 2519.789062 642.441406 C 2526.949219 640.960938 2533.828125 641.398438 2540.429688 643.761719 C 2543.308594 644.558594 2547.488281 647.121094 2552.988281 651.441406 C 2556.03125 654.109375 2558.828125 657.269531 2561.390625 660.910156 C 2564.289062 665.230469 2566.339844 669.550781 2567.558594 673.859375 C 2568.339844 676.230469 2568.839844 679.371094 2569.039062 683.261719 C 2569.828125 693.511719 2563.96875 705.949219 2551.449219 720.578125 C 2537.910156 734.449219 2527.769531 743.910156 2521.050781 748.960938 C 2512.398438 756.011719 2503.320312 762.640625 2493.808594 768.859375 C 2484.089844 762.679688 2475.140625 756.351562 2466.960938 749.851562 C 2460.390625 745.070312 2451.351562 736.691406 2439.859375 724.730469 C 2432.140625 715.519531 2426.949219 708.429688 2424.28125 703.480469 C 2420.941406 696.769531 2418.789062 691.921875 2417.820312 688.929688 C 2416.738281 684.941406 2416.140625 681.339844 2416.019531 678.128906 C 2415.988281 669.929688 2418.449219 662.679688 2423.421875 656.390625 C 2430.109375 648.339844 2437.96875 642.910156 2447 640.121094 C 2454.820312 638.171875 2461.21875 638.058594 2466.21875 639.78125 C 2475 642.570312 2483.429688 646.859375 2491.519531 652.628906 "/>
</svg>
